<svg width="24" height="24" viewBox="0 0 24 24" xmlns="http://www.w3.org/2000/svg">
<path fill-rule="evenodd" clip-rule="evenodd" d="M10 8C10 6.89543 10 5 12 5C14 5 14 6.89543 14 8H12H10ZM15.6933 9.62956C15.8837 9.42381 16 9.14857 16 8.84615V8C16 5.79086 15 3 12 3C9 3 8 5.79086 8 8V8.84615C8 9.14857 8.11634 9.42381 8.3067 9.62956C7.93951 10.0317 7.63712 10.494 7.41604 11H5.41421L3.70711 9.29289C3.31658 8.90237 2.68342 8.90237 2.29289 9.29289C1.90237 9.68342 1.90237 10.3166 2.29289 10.7071L4.29289 12.7071C4.48043 12.8946 4.73478 13 5 13H7V16H5C4.73478 16 4.48043 16.1054 4.29289 16.2929L2.29289 18.2929C1.90237 18.6834 1.90237 19.3166 2.29289 19.7071C2.68342 20.0976 3.31658 20.0976 3.70711 19.7071L5.41421 18H7.41604C8.1876 19.7659 9.94968 21 12 21C14.0503 21 15.8124 19.7659 16.584 18H18.5858L20.2929 19.7071C20.6834 20.0976 21.3166 20.0976 21.7071 19.7071C22.0976 19.3166 22.0976 18.6834 21.7071 18.2929L19.7071 16.2929C19.5196 16.1054 19.2652 16 19 16H17V13H19C19.2652 13 19.5196 12.8946 19.7071 12.7071L21.7071 10.7071C22.0976 10.3166 22.0976 9.68342 21.7071 9.29289C21.3166 8.90237 20.6834 8.90237 20.2929 9.29289L18.5858 11H16.584C16.3629 10.494 16.0605 10.0317 15.6933 9.62956ZM12 10C10.3431 10 9 11.3431 9 13V16C9 17.6569 10.3431 19 12 19C13.6569 19 15 17.6569 15 16V13C15 11.3431 13.6569 10 12 10Z" fill="black"/>
</svg>
