
<svg version="1.0" xmlns="http://www.w3.org/2000/svg"
 width="90.000000pt" height="90.000000pt" viewBox="0 0 90.000000 90.000000"
 preserveAspectRatio="xMidYMid meet">

<g transform="translate(0.000000,90.000000) scale(0.100000,-0.100000)" stroke="none">
<path d="M321 761 c-20 -20 -21 -31 -21 -331 l0 -310 106 0 106 0 -6 33 c-3
17 -22 154 -41 302 -39 288 -48 317 -98 323 -16 2 -34 -5 -46 -17z"/>
<path d="M67 653 c-26 -25 32 -83 84 -83 40 0 91 37 87 63 -4 27 -39 35 -58
12 -16 -19 -44 -19 -60 0 -13 16 -42 20 -53 8z"/>
<path d="M67 503 c-26 -25 32 -83 84 -83 40 0 91 37 87 63 -4 27 -39 35 -58
12 -16 -19 -44 -19 -60 0 -13 16 -42 20 -53 8z"/>
<path d="M67 353 c-26 -25 32 -83 83 -83 38 0 92 39 88 64 -4 26 -40 33 -58
11 -16 -19 -44 -19 -60 0 -13 16 -42 20 -53 8z"/>
<path d="M547 353 c-31 -30 41 -90 96 -79 18 4 39 7 47 7 8 0 29 -3 47 -7 43
-8 106 28 101 60 -4 26 -40 33 -58 11 -16 -19 -44 -19 -60 0 -7 8 -20 15 -30
15 -10 0 -23 -7 -30 -15 -7 -8 -20 -15 -30 -15 -10 0 -23 7 -30 15 -13 16 -42
20 -53 8z"/>
<path d="M67 203 c-26 -25 32 -83 83 -83 38 0 92 39 88 64 -4 26 -40 33 -58
11 -16 -19 -44 -19 -60 0 -13 16 -42 20 -53 8z"/>
<path d="M547 203 c-31 -30 41 -90 96 -79 18 4 39 7 47 7 8 0 29 -3 47 -7 43
-8 106 28 101 60 -4 26 -40 33 -58 11 -16 -19 -44 -19 -60 0 -7 8 -20 15 -30
15 -10 0 -23 -7 -30 -15 -7 -8 -20 -15 -30 -15 -10 0 -23 7 -30 15 -13 16 -42
20 -53 8z"/>
</g>
</svg>
