<svg width="24" height="24" viewBox="0 0 24 24" xmlns="http://www.w3.org/2000/svg">
<path fill-rule="evenodd" clip-rule="evenodd" d="M13 5C13 4.44772 12.5523 4 12 4C11.4477 4 11 4.44772 11 5C11 5.55228 11.4477 6 12 6C12.5523 6 13 5.55228 13 5ZM15 5C15 6.30622 14.1652 7.41746 13 7.82929V11H17C18.6569 11 20 12.3431 20 14V16.1707C21.1652 16.5825 22 17.6938 22 19C22 20.6569 20.6569 22 19 22C17.3431 22 16 20.6569 16 19C16 17.6938 16.8348 16.5825 18 16.1707V14C18 13.4477 17.5523 13 17 13H13V16.1707C14.1652 16.5825 15 17.6938 15 19C15 20.6569 13.6569 22 12 22C10.3431 22 9 20.6569 9 19C9 17.6938 9.83481 16.5825 11 16.1707V13H7C6.44772 13 6 13.4477 6 14V16.1707C7.16519 16.5825 8 17.6938 8 19C8 20.6569 6.65685 22 5 22C3.34315 22 2 20.6569 2 19C2 17.6938 2.83481 16.5825 4 16.1707V14C4 12.3431 5.34315 11 7 11H11V7.82929C9.83481 7.41746 9 6.30622 9 5C9 3.34315 10.3431 2 12 2C13.6569 2 15 3.34315 15 5ZM19 18C18.4477 18 18 18.4477 18 19C18 19.5523 18.4477 20 19 20C19.5523 20 20 19.5523 20 19C20 18.4477 19.5523 18 19 18ZM11 19C11 18.4477 11.4477 18 12 18C12.5523 18 13 18.4477 13 19C13 19.5523 12.5523 20 12 20C11.4477 20 11 19.5523 11 19ZM5 18C4.44772 18 4 18.4477 4 19C4 19.5523 4.44772 20 5 20C5.55228 20 6 19.5523 6 19C6 18.4477 5.55228 18 5 18Z" fill="black"/>
</svg>
