<?xml version="1.0" standalone="no"?>
<!DOCTYPE svg PUBLIC "-//W3C//DTD SVG 20010904//EN"
 "http://www.w3.org/TR/2001/REC-SVG-20010904/DTD/svg10.dtd">
<svg version="1.0" xmlns="http://www.w3.org/2000/svg"
 width="344.000000pt" height="344.000000pt" viewBox="0 0 344.000000 344.000000"
 preserveAspectRatio="xMidYMid meet">

<g transform="translate(0.000000,344.000000) scale(0.100000,-0.100000)"
fill="#000000" stroke="none">
<path d="M912 3094 c-37 -19 -59 -38 -77 -68 -24 -42 -25 -48 -25 -234 0 -179
1 -192 19 -202 12 -6 124 -10 295 -10 l276 0 0 -80 0 -80 -143 0 c-189 0 -181
6 -185 -147 -3 -146 5 -167 66 -171 l42 -3 0 -58 0 -58 -105 -107 -106 -106
-294 0 -295 0 0 90 c0 128 -3 130 -165 130 -112 0 -127 -2 -145 -20 -20 -20
-20 -33 -20 -730 l0 -711 25 -24 c23 -24 30 -25 140 -25 110 0 117 1 140 25
23 22 25 32 25 110 l0 85 298 0 298 0 62 -70 c366 -408 998 -408 1364 0 l62
70 298 0 298 0 0 -85 c0 -78 2 -88 25 -110 23 -24 30 -25 140 -25 110 0 117 1
140 25 l25 24 0 711 c0 697 0 710 -20 730 -18 18 -33 20 -145 20 -162 0 -165
-2 -165 -130 l0 -90 -295 0 -294 0 -106 106 -105 107 0 58 0 58 42 3 c61 4 69
25 66 171 -4 153 4 147 -185 147 l-143 0 0 80 0 80 276 0 c171 0 283 4 295 10
18 10 19 23 19 202 0 186 -1 192 -25 234 -18 30 -40 49 -77 68 l-52 26 -756 0
-756 0 -52 -26z m108 -146 c0 -67 17 -98 53 -98 40 0 57 28 57 97 l0 63 55 0
55 0 0 -70 c0 -65 2 -71 25 -82 19 -8 31 -8 50 0 23 11 25 17 25 82 l0 70 55
0 55 0 0 -62 c0 -67 17 -98 53 -98 40 0 57 28 57 97 l0 63 55 0 55 0 0 -70 c0
-65 2 -71 25 -82 19 -8 31 -8 50 0 23 11 25 17 25 82 l0 70 55 0 55 0 0 -62
c0 -67 17 -98 53 -98 40 0 57 28 57 97 l0 63 55 0 55 0 0 -70 c0 -65 2 -71 25
-82 19 -8 31 -8 50 0 23 11 25 17 25 82 l0 70 55 0 55 0 0 -62 c0 -67 17 -98
53 -98 40 0 57 28 57 97 0 60 1 63 24 63 14 0 38 -11 53 -24 28 -24 28 -25 31
-160 l4 -136 -812 0 -812 0 4 136 c3 135 3 136 31 160 15 13 39 24 53 24 23 0
24 -3 24 -62z m910 -448 l0 -80 -210 0 -210 0 0 80 0 80 210 0 210 0 0 -80z
m328 -242 l-3 -53 -535 0 -535 0 -3 53 -3 52 541 0 541 0 -3 -52z m-108 -244
l0 -87 37 -31 c87 -74 147 -133 180 -178 l35 -48 329 0 329 0 0 -430 0 -430
-319 0 c-362 0 -323 9 -410 -97 -112 -137 -277 -231 -469 -269 -281 -54 -589
61 -771 289 -28 36 -58 68 -67 71 -9 3 -157 6 -330 6 l-314 0 0 430 0 430 329
0 329 0 35 48 c33 45 93 104 180 178 l37 31 0 87 0 86 430 0 430 0 0 -86z
m-1880 -779 l0 -645 -55 0 -55 0 0 645 0 645 55 0 55 0 0 -645z m3010 0 l0
-645 -55 0 -55 0 0 645 0 645 55 0 55 0 0 -645z"/>
</g>
</svg>
