<svg width="24" height="24" viewBox="0 0 24 24"  xmlns="http://www.w3.org/2000/svg">
<path fill-rule="evenodd" clip-rule="evenodd" d="M17.4527 2.58877C16.6677 1.80374 15.3949 1.80374 14.6099 2.58877L3.34036 13.8583C3.06094 14.1377 2.87007 14.4933 2.79161 14.8806L2.04005 18.5907C1.90626 19.2511 2.1123 19.9347 2.5888 20.4112C3.0653 20.8877 3.74887 21.0937 4.40932 20.96L8.1194 20.2084C8.50671 20.1299 8.86229 19.9391 9.14172 19.6596L20.4112 8.39012C21.1963 7.6051 21.1963 6.33232 20.4112 5.54729L17.4527 2.58877ZM4.57274 16.2129L4.44348 16.851L4.01022 18.9898L6.14901 18.5565L6.78709 18.4273L4.57274 16.2129ZM5.62208 14.4194L8.58059 17.3779L16.2101 9.7484L13.2516 6.78988L5.62208 14.4194ZM18.9898 6.96871L17.6315 8.32699L14.673 5.36847L16.0313 4.01019L17.4527 5.43161L17.5684 5.54729L18.9898 6.96871ZM15 18C15 17.4477 15.4477 17 16 17H21C21.5523 17 22 17.4477 22 18C22 18.5523 21.5523 19 21 19H16C15.4477 19 15 18.5523 15 18Z" fill="black"/>
</svg>
