<svg width="24" height="24" viewBox="0 0 24 24" xmlns="http://www.w3.org/2000/svg">
<path fill-rule="evenodd" clip-rule="evenodd" d="M5.90609 16.0195C3.65443 12.0601 4.99066 6.99711 8.89066 4.71111C9.14791 4.56032 9.4097 4.42545 9.67495 4.30616C9.26514 7.00239 9.72351 9.85491 11.1719 12.4019C12.8119 15.2857 15.4199 17.2489 18.3367 18.1131C17.9445 18.4605 17.5133 18.7749 17.0446 19.0496C13.1447 21.3356 8.15775 19.979 5.90609 16.0195ZM7.98466 3.11795C3.218 5.91195 1.58482 12.1 4.33685 16.9393C7.08888 21.7787 13.184 23.4368 17.9506 20.6428C19.0841 19.9784 20.042 19.1206 20.8056 18.1335C21.2347 17.5788 20.9144 16.7603 20.2273 16.6557C17.194 16.1942 14.3924 14.3858 12.7412 11.4821C11.2523 8.86399 10.9907 5.87 11.7762 3.18229C11.974 2.50561 11.3784 1.86428 10.7014 2.02498C9.76937 2.24622 8.85416 2.60829 7.98466 3.11795Z" />
</svg>
