<?xml version="1.0" standalone="no"?>
<svg version="1.0" xmlns="http://www.w3.org/2000/svg"
 width="30.000000pt" height="30.000000pt" viewBox="0 0 30.000000 30.000000"
 preserveAspectRatio="xMidYMid meet">

<g transform="translate(0.000000,30.000000) scale(0.100000,-0.100000)"
fill="#000000" stroke="none">
<path d="M40 231 c0 -27 3 -30 38 -33 29 -2 36 -7 34 -20 -2 -15 5 -18 38 -18
45 0 46 0 25 40 -21 40 -53 60 -97 60 -35 0 -38 -2 -38 -29z"/>
<path d="M110 135 c0 -16 33 -66 52 -79 12 -9 39 -16 60 -16 35 0 38 2 38 29
0 27 -3 30 -37 33 -30 2 -37 7 -35 21 2 14 -5 17 -38 17 -22 0 -40 -2 -40 -5z"/>
</g>
</svg>
