<?xml version="1.0" standalone="no"?>
<!DOCTYPE svg PUBLIC "-//W3C//DTD SVG 20010904//EN"
 "http://www.w3.org/TR/2001/REC-SVG-20010904/DTD/svg10.dtd">
<svg version="1.0" xmlns="http://www.w3.org/2000/svg"
 width="50.000000pt" height="50.000000pt" viewBox="0 0 50.000000 50.000000"
 preserveAspectRatio="xMidYMid meet">

<g transform="translate(0.000000,50.000000) scale(0.100000,-0.100000)"
fill="#000000" stroke="none">
<path d="M372 488 c-6 -7 -13 -55 -17 -106 -7 -90 -25 -139 -25 -68 0 20 -3
36 -6 36 -3 0 -39 -15 -80 -34 l-74 -35 0 30 c0 16 -3 29 -6 29 -4 0 -42 -19
-85 -42 l-79 -42 0 -128 0 -128 250 0 c232 0 250 1 250 18 -1 67 -31 465 -35
472 -9 14 -81 12 -93 -2z m82 -65 c3 -32 8 -105 11 -163 3 -58 8 -135 11 -172
l6 -68 -231 0 -231 0 0 113 0 113 58 29 c31 16 60 31 65 33 4 2 7 -8 7 -22 0
-33 6 -33 87 4 36 17 67 30 69 30 2 0 4 -13 4 -30 0 -16 5 -30 10 -30 6 0 10
-30 10 -70 0 -38 4 -70 9 -70 9 0 15 36 32 228 l12 132 33 0 c32 0 32 0 38
-57z"/>
<path d="M70 205 c0 -16 6 -25 15 -25 9 0 15 9 15 25 0 16 -6 25 -15 25 -9 0
-15 -9 -15 -25z"/>
<path d="M160 205 c0 -16 6 -25 15 -25 9 0 15 9 15 25 0 16 -6 25 -15 25 -9 0
-15 -9 -15 -25z"/>
<path d="M250 205 c0 -16 6 -25 15 -25 9 0 15 9 15 25 0 16 -6 25 -15 25 -9 0
-15 -9 -15 -25z"/>
<path d="M70 115 c0 -16 6 -25 15 -25 9 0 15 9 15 25 0 16 -6 25 -15 25 -9 0
-15 -9 -15 -25z"/>
<path d="M160 115 c0 -16 6 -25 15 -25 9 0 15 9 15 25 0 16 -6 25 -15 25 -9 0
-15 -9 -15 -25z"/>
<path d="M250 115 c0 -16 6 -25 15 -25 9 0 15 9 15 25 0 16 -6 25 -15 25 -9 0
-15 -9 -15 -25z"/>
</g>
</svg>
