<svg width="24" height="24" viewBox="0 0 24 24" xmlns="http://www.w3.org/2000/svg">
<path fill-rule="evenodd" clip-rule="evenodd" d="M3 2C2.44772 2 2 2.44772 2 3V8.82353V21C2 21.5523 2.44772 22 3 22H21C21.5523 22 22 21.5523 22 21V12.9412V8.17647C22 7.82459 21.8151 7.4986 21.513 7.31808C21.2109 7.13757 20.8362 7.12909 20.5263 7.29576L15 10.2679V8.17647C15 7.82459 14.8151 7.4986 14.513 7.31808C14.2109 7.13757 13.8362 7.12909 13.5263 7.29576L8 10.2679V3C8 2.44772 7.55228 2 7 2H3ZM4 8.82353V4H6V11.9412C6 12.2931 6.18495 12.619 6.487 12.7996C6.78905 12.9801 7.16375 12.9886 7.47366 12.8219L13 9.84974V11.9412C13 12.2931 13.1849 12.619 13.487 12.7996C13.7891 12.9801 14.1638 12.9886 14.4737 12.8219L20 9.84974V12.9412V20H4V8.82353ZM9 15.5C9 14.9477 8.55228 14.5 8 14.5C7.44772 14.5 7 14.9477 7 15.5V17.5C7 18.0523 7.44772 18.5 8 18.5C8.55228 18.5 9 18.0523 9 17.5V15.5ZM12 14.5C12.5523 14.5 13 14.9477 13 15.5V17.5C13 18.0523 12.5523 18.5 12 18.5C11.4477 18.5 11 18.0523 11 17.5V15.5C11 14.9477 11.4477 14.5 12 14.5ZM17 15.5C17 14.9477 16.5523 14.5 16 14.5C15.4477 14.5 15 14.9477 15 15.5V17.5C15 18.0523 15.4477 18.5 16 18.5C16.5523 18.5 17 18.0523 17 17.5V15.5Z" fill="black"/>
</svg>
