<svg width="26" height="26" viewBox="0 0 26 26" xmlns="http://www.w3.org/2000/svg">
<path fill-rule="evenodd" clip-rule="evenodd" d="M2.16699 13.0003C2.16699 8.95032 2.16699 6.92532 3.03783 5.41699C3.60832 4.42887 4.42887 3.60832 5.41699 3.03783C6.92532 2.16699 8.95032 2.16699 13.0003 2.16699C17.0503 2.16699 19.0753 2.16699 20.5837 3.03783C21.5718 3.60832 22.3923 4.42887 22.9628 5.41699C23.8337 6.92532 23.8337 8.95032 23.8337 13.0003C23.8337 17.0503 23.8337 19.0753 22.9628 20.5837C22.3923 21.5718 21.5718 22.3923 20.5837 22.9628C19.0753 23.8337 17.0503 23.8337 13.0003 23.8337C8.95032 23.8337 6.92532 23.8337 5.41699 22.9628C4.42887 22.3923 3.60832 21.5718 3.03783 20.5837C2.16699 19.0753 2.16699 17.0503 2.16699 13.0003ZM9.53366 11.1045C9.53366 9.3331 10.9867 7.90866 12.7453 7.90866C14.4866 7.90866 15.9253 9.31901 15.9253 11.073C15.9253 11.7915 15.6808 12.4887 15.2319 13.0498L13.5925 15.0991C13.3309 15.4261 12.8536 15.4791 12.5266 15.2175C12.1996 14.9559 12.1465 14.4786 12.4082 14.1516L14.0476 12.1023C14.2813 11.8102 14.4087 11.4471 14.4087 11.073C14.4087 10.1694 13.6617 9.42533 12.7453 9.42533C11.8116 9.42533 11.0503 10.1835 11.0503 11.1045V11.3753C11.0503 11.7941 10.7108 12.1337 10.292 12.1337C9.87318 12.1337 9.53366 11.7941 9.53366 11.3753V11.1045ZM13.0003 16.5994C12.5316 16.5994 12.1517 16.9794 12.1517 17.448C12.1517 17.9167 12.5316 18.2966 13.0003 18.2966C13.469 18.2966 13.8489 17.9167 13.8489 17.448C13.8489 16.9794 13.469 16.5994 13.0003 16.5994Z" />
</svg>
