<?xml version="1.0" standalone="no"?>
<!DOCTYPE svg PUBLIC "-//W3C//DTD SVG 20010904//EN"
 "http://www.w3.org/TR/2001/REC-SVG-20010904/DTD/svg10.dtd">
<svg version="1.0" xmlns="http://www.w3.org/2000/svg"
 width="512.000000pt" height="512.000000pt" viewBox="0 0 512.000000 512.000000"
 preserveAspectRatio="xMidYMid meet">

<g transform="translate(0.000000,512.000000) scale(0.100000,-0.100000)"
fill="#000000" stroke="none">
<path d="M84 4261 c-64 -39 -93 -103 -80 -176 8 -40 57 -101 95 -118 19 -9
251 -13 819 -17 l794 -5 -69 -45 c-37 -25 -107 -84 -154 -131 -225 -224 -248
-479 -65 -711 58 -73 165 -164 323 -275 309 -216 414 -309 470 -416 25 -46 28
-63 28 -147 0 -89 -2 -100 -38 -175 -52 -109 -126 -202 -268 -339 -169 -163
-350 -296 -751 -551 -75 -48 -102 -89 -101 -156 1 -57 30 -109 77 -138 33 -21
40 -21 1315 -21 1384 0 1307 -3 1358 52 29 30 69 130 132 320 244 750 147
1316 -294 1719 -123 113 -245 193 -599 395 -154 88 -236 156 -236 195 1 93
247 258 586 393 l91 36 723 0 c523 0 733 3 762 12 22 6 53 28 73 49 55 62 59
149 8 209 -54 65 157 60 -2525 60 -2375 0 -2444 -1 -2474 -19z m2922 -1500
c78 -35 194 -226 210 -345 18 -127 -115 -222 -231 -166 -53 26 -66 42 -100
131 -14 35 -39 81 -56 101 -37 46 -59 98 -59 136 0 49 41 113 90 139 52 28 91
29 146 4z m454 -704 c50 -26 90 -90 90 -141 0 -49 -46 -241 -86 -356 -82 -242
-133 -305 -241 -297 -89 6 -153 74 -153 161 0 19 20 85 45 145 43 106 105 319
105 364 0 42 43 101 90 125 56 28 96 28 150 -1z"/>
<path d="M3870 3662 c-92 -41 -127 -150 -75 -237 45 -78 53 -80 440 -83 379
-4 430 0 476 31 56 38 74 72 74 137 0 66 -18 99 -75 138 -33 22 -34 22 -429
21 -218 0 -403 -3 -411 -7z"/>
<path d="M231 2953 c-99 -49 -113 -203 -25 -272 49 -39 87 -43 389 -39 284 3
291 3 328 27 52 32 81 91 74 154 -5 54 -28 91 -77 125 -32 22 -38 22 -344 22
-269 0 -316 -3 -345 -17z"/>
<path d="M4530 2798 c-112 -57 -120 -205 -16 -282 25 -20 43 -21 251 -24 252
-3 273 1 320 62 61 80 35 196 -55 243 -41 22 -53 23 -249 23 -195 0 -209 -1
-251 -22z"/>
<path d="M565 2246 c-120 -54 -131 -208 -21 -290 27 -20 41 -21 484 -24 l457
-2 45 22 c120 61 118 234 -3 292 -31 14 -88 16 -484 16 -352 -1 -454 -4 -478
-14z"/>
<path d="M4460 1939 c-61 -25 -100 -85 -100 -154 0 -57 19 -96 67 -132 34 -26
44 -28 142 -31 94 -3 111 -1 151 20 51 26 90 89 90 146 0 45 -33 105 -72 134
-29 20 -46 23 -143 25 -60 2 -121 -2 -135 -8z"/>
</g>
</svg>
