<svg width="24" height="24" viewBox="0 0 24 24" xmlns="http://www.w3.org/2000/svg">
<path fill-rule="evenodd" clip-rule="evenodd" d="M21.7305 3.31717C22.0097 3.61582 22.079 4.05432 21.9055 4.42447L14.4055 20.4245C14.2522 20.7513 13.9347 20.9702 13.5748 20.9972C13.2148 21.0242 12.8682 20.8551 12.668 20.5547L10.8064 17.7624L7.99614 19.3683C7.68664 19.5451 7.30639 19.5439 6.99808 19.3649C6.68976 19.186 6.5 18.8565 6.5 18.5V13.6499L2.59386 11.9138C2.22488 11.7499 1.99073 11.38 2.00028 10.9764C2.00984 10.5727 2.26123 10.2144 2.63756 10.068L20.6376 3.06803C21.0186 2.91986 21.4514 3.01852 21.7305 3.31717ZM8.5 14.6181L8.81526 14.7757L9.69437 16.0944L8.5 16.7769V14.6181ZM10.8201 14.1774L13.3477 17.9688L18.0871 7.85822L10.8201 14.1774ZM16.0109 7.01321L5.60073 11.0616L7.90614 12.0862C7.91998 12.0924 7.93367 12.0988 7.94722 12.1056L9.34874 12.8064L16.0109 7.01321Z" fill="black"/>
</svg>
