<?xml version="1.0" standalone="no"?>
<!DOCTYPE svg PUBLIC "-//W3C//DTD SVG 20010904//EN"
 "http://www.w3.org/TR/2001/REC-SVG-20010904/DTD/svg10.dtd">
<svg version="1.0" xmlns="http://www.w3.org/2000/svg"
 width="512.000000pt" height="512.000000pt" viewBox="0 0 512.000000 512.000000"
 preserveAspectRatio="xMidYMid meet">

<g transform="translate(0.000000,512.000000) scale(0.100000,-0.100000)"
fill="#000000" stroke="none">
<path d="M2165 5110 c-488 -26 -794 -95 -871 -195 l-24 -32 0 -445 c0 -496 -2
-481 67 -494 27 -5 37 -1 63 24 l30 30 0 357 c0 336 1 357 18 350 48 -19 208
-56 292 -68 l95 -13 5 -323 5 -323 24 -19 c31 -26 64 -24 98 5 27 23 28 29 31
124 l4 100 100 4 c95 3 101 4 124 31 29 34 31 66 3 101 -20 25 -24 26 -125 26
l-104 0 0 130 0 130 123 -6 c67 -2 146 -7 175 -10 l52 -5 0 -323 c0 -312 1
-324 21 -350 27 -35 86 -36 117 -3 22 23 22 28 22 349 l0 325 308 6 c490 10
827 48 995 112 16 7 17 -35 17 -792 l0 -800 23 -21 c29 -27 77 -28 108 -3 l24
19 0 890 0 891 -30 31 c-83 88 -307 146 -695 180 -159 14 -898 21 -1095 10z
m1045 -170 c232 -19 500 -59 540 -80 19 -11 -33 -24 -190 -49 -469 -75 -1291
-80 -1790 -11 -128 18 -280 48 -280 55 0 7 152 37 280 55 74 10 209 24 300 30
91 6 190 12 220 14 104 7 795 -3 920 -14z"/>
<path d="M950 3799 c-396 -22 -708 -76 -838 -144 -56 -29 -73 -42 -95 -75 -16
-23 -17 -104 -17 -1112 l0 -1088 36 -39 c97 -108 411 -174 964 -201 107 -5
268 -10 356 -10 148 0 163 2 188 21 34 27 36 80 3 113 -22 22 -29 23 -297 29
-493 12 -892 59 -1063 126 l-27 11 0 975 c0 536 1 975 3 975 1 0 36 -11 78
-24 43 -13 109 -30 148 -37 l71 -12 0 -889 0 -889 25 -24 c26 -27 70 -32 96
-12 33 25 39 55 39 201 l0 146 111 0 c109 0 111 0 140 29 16 16 29 37 29 46 0
24 -27 72 -45 79 -9 3 -66 6 -126 6 l-109 0 0 170 0 170 114 0 c127 0 151 10
162 66 5 24 0 37 -19 60 -25 28 -27 29 -141 32 l-116 4 0 164 0 164 111 0
c110 0 111 0 141 30 25 26 29 36 24 63 -11 58 -34 67 -162 67 l-114 0 0 148 0
148 68 -7 c37 -4 127 -11 200 -14 l132 -8 0 -854 c0 -730 2 -858 15 -882 24
-48 81 -56 120 -16 l25 24 0 861 0 860 323 0 c574 0 989 37 1224 109 l61 19 4
-135 c3 -128 4 -136 27 -154 32 -26 82 -25 109 4 21 22 22 31 22 241 0 249 -2
256 -77 304 -127 81 -426 135 -887 162 -200 11 -830 11 -1036 -1z m1003 -159
c214 -13 438 -35 554 -56 134 -23 223 -45 223 -54 0 -11 -151 -45 -285 -64
-270 -38 -576 -56 -962 -56 -464 0 -871 30 -1136 84 -169 35 -169 37 0 71 186
38 357 57 708 78 130 8 745 6 898 -3z"/>
<path d="M2800 2929 c-610 -36 -989 -117 -1084 -230 l-26 -31 0 -1198 0 -1198
33 -33 c140 -141 643 -220 1492 -235 1031 -19 1779 84 1885 258 20 32 20 52
20 1215 l0 1183 -36 40 c-97 107 -395 178 -929 221 -176 14 -1161 20 -1355 8z
m1325 -168 c393 -35 659 -77 770 -121 l30 -12 -35 -15 c-19 -9 -84 -26 -145
-38 -571 -121 -1733 -139 -2460 -39 -202 28 -411 77 -400 94 3 4 40 17 82 29
158 42 439 81 738 101 88 6 183 12 210 14 108 8 1097 -3 1210 -13z m-2209
-311 c202 -70 649 -121 1207 -136 l247 -7 0 -988 0 -988 26 -20 c30 -23 71
-27 95 -8 33 26 39 55 39 206 l0 151 168 0 c137 0 172 3 190 16 32 22 44 58
31 91 -18 49 -31 52 -216 53 l-173 0 0 210 0 210 169 0 c153 0 171 2 194 20
13 11 28 31 31 45 7 29 -15 79 -39 89 -9 3 -93 6 -186 6 l-169 0 0 210 0 210
163 0 c177 0 203 6 225 54 16 32 2 80 -29 96 -10 6 -94 10 -188 10 l-171 0 0
164 0 164 198 6 c108 4 220 8 247 9 l50 2 3 -997 2 -997 26 -20 c36 -29 75
-27 105 5 l24 26 3 997 2 997 138 12 c196 17 381 53 610 118 l22 6 -2 -1073
-3 -1074 -62 -22 c-360 -128 -1512 -182 -2333 -108 -306 28 -603 80 -680 120
l-30 16 0 1069 c0 589 2 1070 3 1070 2 0 30 -9 63 -20z"/>
</g>
</svg>
