<svg width="24" height="24" viewBox="0 0 24 24"  xmlns="http://www.w3.org/2000/svg">
<path fill-rule="evenodd" clip-rule="evenodd" d="M12 6C11.4477 6 11 5.55228 11 5V3C11 2.44772 11.4477 2 12 2C12.5523 2 13 2.44772 13 3V5C13 5.55228 12.5523 6 12 6ZM12 22C11.4477 22 11 21.5523 11 21V19C11 18.4477 11.4477 18 12 18C12.5523 18 13 18.4477 13 19V21C13 21.5523 12.5523 22 12 22ZM5 13C5.55228 13 6 12.5523 6 12C6 11.4477 5.55228 11 5 11H3C2.44772 11 2 11.4477 2 12C2 12.5523 2.44772 13 3 13H5ZM22 12C22 12.5523 21.5523 13 21 13H19C18.4477 13 18 12.5523 18 12C18 11.4477 18.4477 11 19 11H21C21.5523 11 22 11.4477 22 12ZM16.2421 6.34313C15.8516 6.73365 15.8516 7.36681 16.2421 7.75734C16.6326 8.14786 17.2658 8.14786 17.6563 7.75734L19.0705 6.34312C19.4611 5.9526 19.4611 5.31944 19.0705 4.92891C18.68 4.53839 18.0469 4.53839 17.6563 4.92891L16.2421 6.34313ZM4.92961 19.0711C4.53909 18.6805 4.53909 18.0474 4.92961 17.6568L6.34383 16.2426C6.73435 15.8521 7.36751 15.8521 7.75804 16.2426C8.14856 16.6332 8.14856 17.2663 7.75804 17.6568L6.34383 19.0711C5.9533 19.4616 5.32014 19.4616 4.92961 19.0711ZM17.6563 16.2428C17.2658 15.8523 16.6326 15.8523 16.2421 16.2428C15.8516 16.6333 15.8516 17.2665 16.2421 17.657L17.6563 19.0712C18.0469 19.4617 18.68 19.4617 19.0705 19.0712C19.4611 18.6807 19.4611 18.0475 19.0705 17.657L17.6563 16.2428ZM4.92961 4.92906C5.32014 4.53854 5.9533 4.53854 6.34383 4.92906L7.75804 6.34328C8.14856 6.7338 8.14856 7.36697 7.75804 7.75749C7.36752 8.14801 6.73435 8.14801 6.34383 7.75749L4.92961 6.34328C4.53909 5.95275 4.53909 5.31959 4.92961 4.92906ZM8 12C8 14.2091 9.79086 16 12 16C14.2091 16 16 14.2091 16 12C16 9.79086 14.2091 8 12 8C9.79086 8 8 9.79086 8 12ZM10 12C10 10.8954 10.8954 10 12 10C13.1046 10 14 10.8954 14 12C14 13.1046 13.1046 14 12 14C10.8954 14 10 13.1046 10 12Z" />
</svg>
