<svg width="24" height="24" viewBox="0 0 24 24" xmlns="http://www.w3.org/2000/svg">
<path fill-rule="evenodd" clip-rule="evenodd" d="M4 4C2.89543 4 2 4.89543 2 6C2 7.10457 2.89543 8 4 8C5.10457 8 6 7.10457 6 6C6 4.89543 5.10457 4 4 4ZM9 5C8.44771 5 8 5.44772 8 6C8 6.55228 8.44771 7 9 7H21C21.5523 7 22 6.55228 22 6C22 5.44772 21.5523 5 21 5H9ZM8 12C8 11.4477 8.44771 11 9 11H21C21.5523 11 22 11.4477 22 12C22 12.5523 21.5523 13 21 13H9C8.44771 13 8 12.5523 8 12ZM4 10C2.89543 10 2 10.8954 2 12C2 13.1046 2.89543 14 4 14C5.10457 14 6 13.1046 6 12C6 10.8954 5.10457 10 4 10ZM8 18C8 17.4477 8.44771 17 9 17H21C21.5523 17 22 17.4477 22 18C22 18.5523 21.5523 19 21 19H9C8.44771 19 8 18.5523 8 18ZM4 16C2.89543 16 2 16.8954 2 18C2 19.1046 2.89543 20 4 20C5.10457 20 6 19.1046 6 18C6 16.8954 5.10457 16 4 16Z" />
</svg>
