<svg width="24" height="24" viewBox="0 0 24 24"  xmlns="http://www.w3.org/2000/svg">
<path fill-rule="evenodd" clip-rule="evenodd" d="M10 7L8 7H6L6 8H6.99758L7 8L16 8L17 8L17.0024 8H18V7L16 7L14 7L10 7ZM14 5C14 4.44772 13.5523 4 13 4L11 4C10.4477 4 10 4.44772 10 5L13 5H14ZM8 5C8 3.34315 9.34315 2 11 2H13C14.6569 2 16 3.34315 16 5L18 5C18.5304 5 19.0391 5.21071 19.4142 5.58579C19.7893 5.96086 20 6.46957 20 7V8C20 8.74716 19.5903 9.39862 18.9833 9.74199C18.9944 9.82709 19 9.91325 19 10L19 19C19 20.6569 17.6569 22 16 22H8C6.34315 22 5 20.6569 5 19L5 10C5 9.91254 5.00562 9.82638 5.0165 9.74188C4.40961 9.39848 4 8.74708 4 8V7C4 5.89543 4.89543 5 6 5L8 5ZM7 12L7 10L9 10V16C9 16.5523 9.44772 17 10 17C10.5523 17 11 16.5523 11 16V10H13V16C13 16.5523 13.4477 17 14 17C14.5523 17 15 16.5523 15 16V10L17 10V12L17 19C17 19.5523 16.5523 20 16 20H8C7.44772 20 7 19.5523 7 19L7 12Z" fill="black"/>
</svg>
