<?xml version="1.0" standalone="no"?>
<!DOCTYPE svg PUBLIC "-//W3C//DTD SVG 20010904//EN"
 "http://www.w3.org/TR/2001/REC-SVG-20010904/DTD/svg10.dtd">
<svg version="1.0" xmlns="http://www.w3.org/2000/svg"
 width="512.000000pt" height="512.000000pt" viewBox="0 0 512.000000 512.000000"
 preserveAspectRatio="xMidYMid meet">

<g transform="translate(0.000000,512.000000) scale(0.100000,-0.100000)"
fill="#000000" stroke="none">
<path d="M2367 5110 c-689 -72 -1245 -327 -1660 -759 -449 -469 -697 -1106
-697 -1791 0 -978 507 -1840 1328 -2259 281 -143 563 -228 917 -277 170 -24
493 -24 648 -1 751 114 1382 514 1792 1137 554 844 554 1960 -1 2802 -416 630
-1062 1034 -1819 1138 -110 15 -401 21 -508 10z m352 -765 c126 -7 312 -46
455 -95 270 -93 489 -232 687 -437 283 -293 448 -678 490 -1141 46 -507 -171
-1058 -560 -1425 -650 -611 -1629 -659 -2343 -115 -334 254 -577 645 -668
1073 -27 128 -37 389 -21 535 45 396 202 760 445 1035 238 269 599 469 982
544 110 22 322 40 399 35 22 -2 82 -6 134 -9z"/>
<path d="M1689 3793 c-109 -75 -299 -265 -372 -373 -31 -47 -57 -90 -57 -95 0
-6 39 -49 86 -95 104 -103 160 -180 214 -291 63 -133 83 -221 83 -379 1 -274
-78 -462 -285 -676 l-98 -101 62 -89 c79 -114 259 -293 371 -368 l87 -60 88
86 c193 188 355 270 594 299 173 21 380 -24 547 -118 60 -34 118 -80 198 -157
131 -126 108 -124 245 -21 102 77 229 204 307 309 94 125 95 107 -7 212 -135
138 -215 268 -263 429 -30 101 -37 312 -14 426 37 186 116 329 272 489 l103
107 -55 79 c-68 99 -160 203 -250 283 -71 63 -206 161 -222 161 -5 0 -42 -34
-83 -76 -185 -187 -358 -276 -593 -304 -285 -34 -559 73 -792 309 -38 39 -72
71 -75 71 -3 0 -44 -26 -91 -57z m952 -793 c226 -43 371 -238 357 -479 -4 -67
-11 -93 -41 -153 -197 -398 -774 -315 -849 123 -23 133 19 273 114 374 109
117 259 165 419 135z"/>
<path d="M2477 2688 c-40 -23 -77 -86 -77 -129 0 -13 9 -43 20 -67 15 -34 29
-47 66 -64 108 -47 214 18 214 133 0 115 -123 185 -223 127z"/>
<path d="M325 5071 c-191 -47 -323 -244 -286 -428 18 -92 55 -154 149 -254
l87 -92 75 89 c116 137 213 236 343 347 l118 101 -78 78 c-43 43 -98 92 -123
108 -81 51 -197 72 -285 51z"/>
<path d="M4607 5070 c-74 -19 -139 -62 -223 -147 -47 -47 -84 -88 -82 -92 2
-5 44 -42 93 -83 104 -88 308 -294 380 -386 l49 -64 91 94 c124 127 150 180
150 308 0 86 -3 101 -31 160 -61 129 -178 208 -316 215 -40 3 -90 0 -111 -5z"/>
<path d="M4775 758 c-72 -92 -276 -298 -380 -386 -49 -41 -91 -78 -93 -83 -2
-4 36 -46 83 -94 117 -118 183 -150 310 -150 80 0 97 4 155 31 83 39 145 101
184 184 28 59 31 74 31 160 0 128 -26 181 -150 308 l-91 94 -49 -64z"/>
<path d="M188 724 c-98 -96 -133 -157 -151 -257 -43 -255 218 -485 469 -412
80 23 134 59 227 153 l78 78 -118 101 c-129 110 -229 211 -337 341 -38 45 -72
82 -75 82 -3 0 -45 -39 -93 -86z"/>
</g>
</svg>
